<?xml version="1.0" encoding="utf-8"?>
<!-- Generator: Adobe Illustrator 25.0.0, SVG Export Plug-In . SVG Version: 6.00 Build 0)  -->
<svg version="1.1" id="Lager_1" xmlns="http://www.w3.org/2000/svg" xmlns:xlink="http://www.w3.org/1999/xlink" x="0px" y="0px"
	 viewBox="0 0 260.62 187.26" style="enable-background:new 0 0 260.62 187.26;" xml:space="preserve">
<style type="text/css">
	.st0{fill:#176027;stroke:#176027;stroke-miterlimit:10;}
</style>
<g>
	<path class="st0" d="M132.2,96.9c-0.99,0.72-2.05,1.22-3.19,1.48c-1.14,0.26-2.3,0.39-3.45,0.39c-3.97,0-7.5-0.59-10.58-1.76
		c-3.09-1.17-5.79-2.79-8.13-4.84c-2.33-2.06-4.32-4.48-5.95-7.26c-1.64-2.78-3-5.78-4.08-9c-1.09-3.22-1.92-6.58-2.5-10.08
		c-0.58-3.5-0.97-7-1.17-10.49c-0.2-3.49-0.25-6.91-0.15-10.26c0.1-3.35,0.3-6.45,0.59-9.32c-0.52,0.78-1.16,2.03-1.91,3.74
		c-0.75,1.71-1.59,3.71-2.5,6c-0.91,2.29-1.86,4.79-2.85,7.5c-0.99,2.71-1.96,5.44-2.93,8.19c-0.97,2.75-1.91,5.45-2.82,8.1
		c-0.91,2.65-1.72,5.06-2.43,7.24c-0.71,2.17-1.32,4.02-1.83,5.54c-0.51,1.52-0.83,2.54-0.98,3.06c-0.12,0.35-0.27,0.78-0.46,1.3
		s-0.42,1.03-0.7,1.52c-0.28,0.49-0.59,0.91-0.96,1.26s-0.78,0.52-1.24,0.52c-0.52,0-0.96-0.21-1.3-0.63s-0.63-0.92-0.85-1.5
		c-0.22-0.58-0.39-1.16-0.52-1.74c-0.13-0.58-0.22-1.04-0.28-1.39c-0.17-1.22-0.33-2.75-0.48-4.61c-0.15-1.85-0.27-3.91-0.37-6.17
		s-0.18-4.67-0.24-7.24c-0.06-2.56-0.11-5.14-0.15-7.74c-0.04-2.59-0.07-5.14-0.09-7.65c-0.02-2.51-0.03-4.85-0.04-7.04
		s-0.02-4.15-0.02-5.89s0-3.13,0-4.17c-0.64,1.45-1.4,3.29-2.28,5.52c-0.88,2.23-1.84,4.74-2.87,7.52c-1.03,2.78-2.1,5.77-3.22,8.97
		c-1.12,3.2-2.22,6.5-3.3,9.89c-1.09,3.39-2.13,6.81-3.13,10.26c-1,3.45-1.89,6.79-2.67,10.04c-0.09,0.29-0.2,0.64-0.33,1.06
		c-0.13,0.42-0.3,0.82-0.5,1.2c-0.2,0.38-0.46,0.7-0.76,0.98c-0.3,0.28-0.67,0.41-1.11,0.41c-0.41,0-0.77-0.13-1.09-0.39
		c-0.32-0.26-0.59-0.57-0.8-0.93c-0.22-0.36-0.39-0.75-0.52-1.17c-0.13-0.42-0.21-0.8-0.24-1.15c-0.15-0.72-0.27-1.52-0.37-2.39
		s-0.19-1.76-0.26-2.67c-0.07-0.91-0.14-1.81-0.2-2.69c-0.06-0.88-0.12-1.7-0.17-2.46c-0.32-3.97-0.54-7.89-0.67-11.78
		c-0.13-3.88-0.2-7.79-0.2-11.73c0-3.88,0.07-7.74,0.2-11.56c0.13-3.82,0.33-7.69,0.59-11.6c0.09-1.13,0.22-2.4,0.39-3.8
		c0.17-1.4,0.51-2.73,1.02-3.98c0.51-1.25,1.25-2.29,2.22-3.13c0.97-0.84,2.3-1.26,3.98-1.26c0.41,0,0.75,0.09,1.04,0.28
		c0.29,0.19,0.43,0.52,0.43,0.98v0.43c-0.26,1.74-0.52,3.47-0.78,5.19c-0.26,1.72-0.54,3.48-0.83,5.28
		c-0.7,5.79-1.28,11.58-1.76,17.36c-0.48,5.78-0.72,11.6-0.72,17.45c0,2.29,0.04,4.55,0.13,6.78c0.09,2.23,0.25,4.48,0.48,6.74
		c2-6.2,3.76-11.69,5.28-16.47c1.52-4.78,2.86-8.97,4.02-12.56c1.16-3.59,2.14-6.66,2.93-9.19c0.8-2.53,1.47-4.66,2.02-6.37
		c0.55-1.71,0.98-3.08,1.3-4.11c0.32-1.03,0.58-1.83,0.78-2.39c0.2-0.56,0.35-0.98,0.43-1.24s0.17-0.49,0.26-0.7
		c0.43-0.98,1.03-1.87,1.78-2.65c0.75-0.78,1.72-1.17,2.91-1.17c0.81,0,1.47,0.2,1.98,0.61c0.51,0.41,0.91,0.91,1.2,1.52
		c0.29,0.61,0.48,1.28,0.59,2c0.1,0.72,0.15,1.39,0.15,2c-0.06,4.49-0.19,8.93-0.39,13.32c-0.2,4.39-0.38,8.74-0.52,13.06
		c-0.15,4.32-0.21,8.6-0.2,12.86c0.01,4.26,0.21,8.5,0.59,12.73c1.16-3.42,2.23-6.64,3.22-9.67c0.98-3.03,1.92-5.92,2.8-8.67
		c0.88-2.75,1.74-5.4,2.56-7.95c0.83-2.55,1.68-5.07,2.56-7.56c0.88-2.49,1.8-4.98,2.76-7.47c0.96-2.49,2.01-5.06,3.17-7.69
		c0.26-0.52,0.55-1.05,0.87-1.59c0.32-0.54,0.68-1.02,1.09-1.46c0.41-0.43,0.87-0.8,1.39-1.09c0.52-0.29,1.1-0.43,1.74-0.43
		c0.9,0,1.61,0.29,2.13,0.87c0.52,0.58,0.92,1.28,1.2,2.09c0.27,0.81,0.46,1.66,0.54,2.54c0.09,0.88,0.13,1.63,0.13,2.24
		c0,2.67-0.09,5.61-0.26,8.84s-0.3,6.58-0.37,10.06s-0.04,7,0.11,10.56c0.14,3.56,0.54,7.01,1.17,10.34
		c0.64,3.33,1.58,6.45,2.82,9.34c1.25,2.9,2.93,5.43,5.04,7.58c2.11,2.16,4.73,3.86,7.84,5.11c3.11,1.25,6.86,1.87,11.23,1.87
		c0.67,0,1.31-0.05,1.93-0.15s1.22-0.28,1.8-0.54L132.2,96.9z"/>
	<path class="st0" d="M128.17,53.97c0,0.32-0.12,0.6-0.35,0.85c-0.23,0.25-0.51,0.37-0.83,0.37c-0.26,0-0.54-0.08-0.83-0.24
		c-0.29-0.16-0.62-0.34-0.98-0.54c-0.36-0.2-0.78-0.38-1.26-0.54c-0.48-0.16-1.02-0.24-1.63-0.24c-1.42,0-2.69,0.44-3.8,1.33
		c-1.12,0.88-2.06,1.98-2.83,3.28s-1.35,2.69-1.76,4.17c-0.41,1.48-0.61,2.81-0.61,4c0,0.84,0.07,1.66,0.22,2.46
		c0.14,0.8,0.4,1.52,0.76,2.17c0.36,0.65,0.86,1.17,1.5,1.56c0.64,0.39,1.45,0.59,2.43,0.59c1.04,0,2.04-0.2,3-0.59
		c0.96-0.39,1.85-0.9,2.69-1.54c0.03-0.93,0.18-1.9,0.46-2.93s0.63-2.04,1.06-3.04c0.43-1,0.93-1.95,1.5-2.85
		c0.56-0.9,1.15-1.69,1.76-2.39l0.57,0.35c-0.32,0.99-0.55,2-0.7,3.04c-0.15,1.04-0.22,2.07-0.22,3.09c0,1.04,0.09,2.03,0.26,2.96
		c0.17,0.93,0.48,1.73,0.91,2.41s1.03,1.22,1.78,1.61c0.75,0.39,1.72,0.59,2.91,0.59c1.45,0,2.78-0.33,4-1
		c1.22-0.67,2.29-1.51,3.22-2.52l0.35,0.17c-0.52,1.01-1.2,1.98-2.04,2.91c-0.84,0.93-1.77,1.76-2.8,2.5
		c-1.03,0.74-2.12,1.33-3.28,1.76c-1.16,0.43-2.3,0.65-3.43,0.65c-1.59,0-2.9-0.46-3.91-1.37c-1.01-0.91-1.71-2.06-2.09-3.46
		c-1.22,1.22-2.57,2.24-4.06,3.06c-1.49,0.83-3.06,1.24-4.72,1.24c-1.22,0-2.3-0.22-3.24-0.67c-0.94-0.45-1.73-1.05-2.37-1.8
		c-0.64-0.75-1.12-1.64-1.46-2.67c-0.33-1.03-0.5-2.11-0.5-3.24c0-1.3,0.21-2.64,0.63-4.02c0.42-1.38,1-2.73,1.74-4.06
		c0.74-1.33,1.61-2.59,2.63-3.78c1.01-1.19,2.12-2.23,3.32-3.13c1.2-0.9,2.47-1.61,3.8-2.13c1.33-0.52,2.69-0.78,4.08-0.78
		c0.32,0,0.71,0.04,1.17,0.11c0.46,0.07,0.91,0.2,1.35,0.37s0.8,0.42,1.11,0.74C128.02,53.07,128.17,53.48,128.17,53.97z"/>
	<path class="st0" d="M172.62,70.53c-0.52,1.16-1.18,2.2-1.98,3.13c-0.8,0.93-1.66,1.72-2.58,2.37c-0.93,0.65-1.88,1.16-2.87,1.52
		c-0.98,0.36-1.93,0.54-2.82,0.54c-1.68,0-3.1-0.29-4.26-0.87c-1.16-0.58-2.1-1.36-2.83-2.35c-0.72-0.98-1.25-2.14-1.56-3.48
		c-0.32-1.33-0.48-2.75-0.48-4.26c0-1.16,0.09-2.36,0.26-3.61c0.17-1.25,0.42-2.45,0.74-3.61c0.06-0.17,0.12-0.38,0.17-0.63
		c0.06-0.25,0.09-0.46,0.09-0.63c0-0.14-0.09-0.26-0.26-0.35c-0.49-0.17-1.01-0.34-1.56-0.5c-0.55-0.16-1.09-0.34-1.63-0.54
		c-0.54-0.2-1.04-0.43-1.52-0.7c-0.48-0.26-0.89-0.59-1.24-1c-0.03,1.74-0.32,3.5-0.87,5.28c-0.55,1.78-1.28,3.49-2.19,5.13
		c-0.91,1.64-1.98,3.17-3.19,4.58c-1.22,1.42-2.51,2.65-3.87,3.69l-0.43-0.43c0.84-0.93,1.61-2.03,2.3-3.3
		c0.7-1.27,1.29-2.61,1.78-4c0.49-1.39,0.88-2.8,1.15-4.22c0.27-1.42,0.41-2.75,0.41-4c0-0.64-0.06-1.24-0.17-1.8
		c-0.12-0.56-0.24-1.11-0.37-1.63c-0.13-0.52-0.25-1.02-0.37-1.5c-0.12-0.48-0.17-0.96-0.17-1.46c0-0.81,0.26-1.45,0.78-1.91
		c0.52-0.46,1.19-0.7,2-0.7c0.43,0,0.77,0.12,1,0.37c0.23,0.25,0.43,0.54,0.61,0.89s0.38,0.71,0.61,1.09c0.23,0.38,0.57,0.7,1,0.96
		c0.55,0.32,1.25,0.55,2.09,0.7c0.84,0.15,1.72,0.28,2.65,0.39c0.93,0.12,1.85,0.23,2.78,0.35c0.93,0.12,1.76,0.31,2.5,0.59
		c0.74,0.28,1.34,0.65,1.8,1.13c0.46,0.48,0.7,1.12,0.7,1.93c0,0.41-0.04,0.8-0.11,1.2c-0.07,0.39-0.18,0.76-0.33,1.11
		c-0.35,1.22-0.65,2.46-0.89,3.72c-0.25,1.26-0.37,2.51-0.37,3.76c0,1.07,0.08,2.05,0.24,2.93c0.16,0.88,0.46,1.65,0.89,2.28
		c0.43,0.64,1.01,1.13,1.74,1.48c0.72,0.35,1.65,0.52,2.78,0.52c1.62,0,3.04-0.4,4.26-1.19s2.29-1.85,3.22-3.15L172.62,70.53z"/>
	<path class="st0" d="M192.34,70.53c-0.67,1.1-1.46,2.11-2.37,3.02c-0.91,0.91-1.91,1.71-3,2.39c-1.09,0.68-2.25,1.21-3.48,1.59
		c-1.23,0.38-2.5,0.56-3.8,0.56c-1.62,0-3.06-0.28-4.32-0.83c-1.26-0.55-2.32-1.31-3.17-2.28s-1.51-2.11-1.96-3.43
		c-0.45-1.32-0.67-2.76-0.67-4.32c0-1.68,0.25-3.27,0.74-4.78c0.49-1.51,1.17-2.92,2.04-4.24s1.89-2.53,3.06-3.63
		c1.17-1.1,2.43-2.09,3.76-2.96l0.52,0.39c-1.42,1.68-2.57,3.56-3.45,5.65c-0.88,2.09-1.33,4.26-1.33,6.52
		c0,1.3,0.15,2.56,0.46,3.76c0.3,1.2,0.78,2.27,1.43,3.19c0.65,0.93,1.48,1.67,2.5,2.22c1.01,0.55,2.25,0.83,3.69,0.83
		c1.71,0,3.34-0.36,4.89-1.09c1.55-0.72,2.95-1.64,4.19-2.74L192.34,70.53z M180.17,41.67c0,0.58-0.13,1.16-0.39,1.74
		c-0.26,0.58-0.6,1.09-1.02,1.54c-0.42,0.45-0.91,0.82-1.46,1.11c-0.55,0.29-1.12,0.43-1.69,0.43c-0.75,0-1.36-0.25-1.8-0.74
		c-0.45-0.49-0.67-1.11-0.67-1.87c0-0.58,0.13-1.15,0.39-1.72c0.26-0.56,0.6-1.06,1.02-1.5s0.9-0.79,1.43-1.06
		c0.54-0.28,1.09-0.41,1.67-0.41c0.75,0,1.36,0.23,1.83,0.7C179.94,40.35,180.17,40.95,180.17,41.67z"/>
	<path class="st0" d="M217.45,70.53c-0.75,1.1-1.66,2.13-2.72,3.09c-1.06,0.96-2.22,1.78-3.48,2.48c-1.26,0.7-2.58,1.25-3.96,1.65
		c-1.38,0.41-2.76,0.61-4.15,0.61c-1.97,0-3.81-0.25-5.52-0.76c-1.71-0.51-3.2-1.28-4.48-2.33c-1.27-1.04-2.27-2.35-3-3.93
		c-0.72-1.58-1.09-3.43-1.09-5.54c0-2.09,0.38-4.03,1.15-5.84c0.77-1.81,1.83-3.39,3.17-4.74c1.35-1.35,2.93-2.41,4.76-3.19
		s3.78-1.17,5.87-1.17c0.98,0,1.9,0.14,2.76,0.41s1.6,0.68,2.24,1.22c0.64,0.54,1.14,1.19,1.5,1.98s0.54,1.68,0.54,2.69
		c0,1.22-0.25,2.29-0.74,3.22c-0.49,0.93-1.14,1.74-1.96,2.43c-0.81,0.7-1.73,1.28-2.76,1.74c-1.03,0.46-2.1,0.84-3.22,1.13
		c-1.12,0.29-2.22,0.5-3.3,0.63c-1.09,0.13-2.08,0.2-2.98,0.2h-1.04c0.38,2.64,1.42,4.65,3.13,6.04c1.71,1.39,4.07,2.09,7.08,2.09
		c2.14,0,4.24-0.38,6.28-1.13c2.04-0.75,3.89-1.8,5.54-3.13L217.45,70.53z M194.94,65.18h1.09c1.04,0,2.11-0.17,3.21-0.5
		c1.1-0.33,2.09-0.83,2.98-1.48c0.88-0.65,1.61-1.46,2.19-2.41c0.58-0.96,0.87-2.04,0.87-3.26c0-1.19-0.25-2.17-0.76-2.96
		s-1.38-1.17-2.63-1.17c-1.28,0-2.35,0.38-3.24,1.15c-0.88,0.77-1.6,1.71-2.15,2.82c-0.55,1.12-0.95,2.29-1.2,3.52
		s-0.37,2.32-0.37,3.28V65.18z"/>
</g>
<g>
	<path class="st0" d="M50,115.77c0,2.09-0.34,3.95-1.02,5.58c-0.68,1.64-1.6,3.09-2.76,4.37c-1.16,1.28-2.51,2.38-4.06,3.3
		c-1.55,0.93-3.19,1.71-4.93,2.35c-1.74,0.64-3.53,1.14-5.37,1.5c-1.84,0.36-3.63,0.62-5.37,0.76v-0.78
		c1.91-0.67,3.89-1.55,5.93-2.65c2.04-1.1,3.9-2.4,5.56-3.89c1.67-1.49,3.04-3.19,4.13-5.08c1.09-1.9,1.63-3.99,1.63-6.28
		c0-2.49-0.68-4.48-2.04-5.95c-1.36-1.48-3.32-2.22-5.87-2.22c-2,0-3.98,0.31-5.95,0.93c-1.97,0.62-3.85,1.49-5.65,2.61
		c-1.8,1.12-3.47,2.43-5.02,3.93c-1.55,1.51-2.89,3.15-4.02,4.93c-1.13,1.78-2.02,3.65-2.67,5.61c-0.65,1.96-0.98,3.93-0.98,5.93
		c0,2.17,0.45,4.17,1.35,6c0.9,1.83,2.07,3.45,3.52,4.87c1.45,1.42,3.1,2.62,4.95,3.58c1.85,0.97,3.74,1.7,5.65,2.2v0.78
		c-0.93,0.38-1.91,0.88-2.96,1.52c-1.04,0.64-2.09,1.38-3.15,2.22c-1.06,0.84-2.07,1.78-3.04,2.82c-0.97,1.04-1.83,2.14-2.59,3.3
		c-0.75,1.16-1.35,2.37-1.8,3.63c-0.45,1.26-0.67,2.54-0.67,3.85c0,3.36,0.83,5.91,2.5,7.65s4.18,2.61,7.54,2.61
		c1.88,0,3.69-0.25,5.41-0.76s3.33-1.23,4.82-2.17c1.49-0.94,2.86-2.08,4.11-3.41c1.25-1.33,2.33-2.81,3.26-4.43l0.56,0.26
		c-0.78,2.09-1.91,4.07-3.39,5.95c-1.48,1.88-3.19,3.53-5.13,4.95c-1.94,1.42-4.06,2.54-6.37,3.37c-2.3,0.83-4.67,1.24-7.11,1.24
		c-1.88,0-3.62-0.28-5.21-0.83c-1.59-0.55-2.97-1.36-4.13-2.43c-1.16-1.07-2.07-2.4-2.74-3.98c-0.67-1.58-1-3.41-1-5.5
		c0-4.14,1.23-7.79,3.69-10.93c2.46-3.14,6.13-5.76,10.99-7.84c-2.43,0-4.65-0.39-6.65-1.17c-2-0.78-3.72-1.89-5.15-3.33
		c-1.43-1.43-2.54-3.15-3.32-5.15s-1.17-4.21-1.17-6.65c0-2.38,0.43-4.72,1.3-7.04c0.87-2.32,2.06-4.53,3.58-6.65
		c1.52-2.11,3.3-4.07,5.35-5.87c2.04-1.8,4.24-3.35,6.61-4.67c2.36-1.32,4.82-2.35,7.39-3.11c2.56-0.75,5.11-1.13,7.63-1.13
		c1.85,0,3.62,0.2,5.3,0.59c1.68,0.39,3.15,1.03,4.41,1.91c1.26,0.88,2.26,2.05,3,3.5C49.63,111.92,50,113.69,50,115.77z"/>
	<path class="st0" d="M83.01,158.23c-0.52,1.16-1.18,2.2-1.98,3.13c-0.8,0.93-1.66,1.72-2.59,2.37c-0.93,0.65-1.88,1.16-2.87,1.52
		c-0.99,0.36-1.93,0.54-2.82,0.54c-1.68,0-3.1-0.29-4.26-0.87c-1.16-0.58-2.1-1.36-2.82-2.35c-0.72-0.98-1.25-2.14-1.56-3.48
		c-0.32-1.33-0.48-2.75-0.48-4.26c0-1.16,0.09-2.36,0.26-3.61c0.17-1.25,0.42-2.45,0.74-3.61c0.06-0.17,0.12-0.38,0.17-0.63
		c0.06-0.25,0.09-0.46,0.09-0.63c0-0.14-0.09-0.26-0.26-0.35c-0.49-0.17-1.01-0.34-1.56-0.5c-0.55-0.16-1.09-0.34-1.63-0.54
		c-0.54-0.2-1.04-0.43-1.52-0.7c-0.48-0.26-0.89-0.59-1.24-1c-0.03,1.74-0.32,3.5-0.87,5.28c-0.55,1.78-1.28,3.49-2.19,5.13
		c-0.91,1.64-1.98,3.17-3.19,4.58c-1.22,1.42-2.51,2.65-3.87,3.69l-0.43-0.44c0.84-0.93,1.61-2.03,2.3-3.3
		c0.7-1.27,1.29-2.61,1.78-4c0.49-1.39,0.88-2.79,1.15-4.21c0.27-1.42,0.41-2.75,0.41-4c0-0.64-0.06-1.24-0.17-1.8
		c-0.12-0.56-0.24-1.11-0.37-1.63c-0.13-0.52-0.25-1.02-0.37-1.5c-0.12-0.48-0.17-0.96-0.17-1.46c0-0.81,0.26-1.45,0.78-1.91
		c0.52-0.46,1.19-0.7,2-0.7c0.43,0,0.77,0.12,1,0.37c0.23,0.25,0.43,0.54,0.61,0.89s0.38,0.71,0.61,1.09c0.23,0.38,0.56,0.7,1,0.96
		c0.55,0.32,1.25,0.55,2.09,0.7c0.84,0.15,1.72,0.28,2.65,0.39c0.93,0.12,1.85,0.23,2.78,0.35c0.93,0.12,1.76,0.31,2.5,0.59
		c0.74,0.28,1.34,0.65,1.8,1.13c0.46,0.48,0.7,1.12,0.7,1.93c0,0.41-0.04,0.8-0.11,1.2c-0.07,0.39-0.18,0.76-0.33,1.11
		c-0.35,1.22-0.65,2.46-0.89,3.71c-0.25,1.26-0.37,2.51-0.37,3.76c0,1.07,0.08,2.05,0.24,2.93c0.16,0.88,0.46,1.64,0.89,2.28
		c0.43,0.64,1.01,1.13,1.74,1.48c0.72,0.35,1.65,0.52,2.78,0.52c1.62,0,3.04-0.4,4.26-1.19s2.29-1.85,3.22-3.15L83.01,158.23z"/>
	<path class="st0" d="M102.73,158.23c-0.67,1.1-1.46,2.11-2.37,3.02c-0.91,0.91-1.91,1.71-3,2.39c-1.09,0.68-2.25,1.21-3.48,1.59
		c-1.23,0.38-2.5,0.57-3.8,0.57c-1.62,0-3.06-0.28-4.32-0.83c-1.26-0.55-2.32-1.31-3.17-2.28s-1.51-2.11-1.96-3.43
		c-0.45-1.32-0.67-2.76-0.67-4.32c0-1.68,0.25-3.27,0.74-4.78c0.49-1.51,1.17-2.92,2.04-4.24s1.89-2.53,3.06-3.63
		c1.17-1.1,2.43-2.09,3.76-2.96l0.52,0.39c-1.42,1.68-2.57,3.56-3.45,5.65c-0.88,2.09-1.33,4.26-1.33,6.52
		c0,1.3,0.15,2.56,0.46,3.76c0.3,1.2,0.78,2.27,1.43,3.19c0.65,0.93,1.48,1.67,2.5,2.22c1.01,0.55,2.24,0.83,3.69,0.83
		c1.71,0,3.34-0.36,4.89-1.09c1.55-0.72,2.95-1.64,4.19-2.74L102.73,158.23z M90.56,129.37c0,0.58-0.13,1.16-0.39,1.74
		c-0.26,0.58-0.6,1.09-1.02,1.54c-0.42,0.45-0.91,0.82-1.46,1.11c-0.55,0.29-1.12,0.43-1.69,0.43c-0.75,0-1.35-0.25-1.8-0.74
		c-0.45-0.49-0.67-1.12-0.67-1.87c0-0.58,0.13-1.15,0.39-1.72c0.26-0.56,0.6-1.06,1.02-1.5s0.9-0.79,1.43-1.06
		c0.54-0.28,1.09-0.41,1.67-0.41c0.75,0,1.36,0.23,1.83,0.7C90.33,128.06,90.56,128.65,90.56,129.37z"/>
	<path class="st0" d="M134.79,157.8c-0.58,1.13-1.25,2.22-2,3.26c-0.75,1.04-1.62,1.97-2.61,2.78c-0.99,0.81-2.09,1.46-3.3,1.93
		c-1.22,0.48-2.59,0.72-4.13,0.72c-2.78,0-5.06-0.64-6.84-1.91c-1.78-1.28-3.28-3.06-4.5-5.35c-0.35,0.15-0.69,0.27-1.02,0.37
		c-0.33,0.1-0.66,0.21-0.98,0.33c-0.06,0.49-0.12,0.94-0.17,1.35c-0.06,0.41-0.12,0.78-0.17,1.13c-0.06,0.38-0.13,0.78-0.22,1.22
		c-0.09,0.44-0.23,0.84-0.43,1.22c-0.2,0.38-0.48,0.69-0.83,0.93s-0.83,0.37-1.43,0.37c-0.87,0-1.48-0.27-1.83-0.8
		s-0.62-1.12-0.83-1.76c-0.43-1.39-0.83-3.07-1.2-5.04c-0.36-1.97-0.67-4-0.93-6.11s-0.46-4.18-0.61-6.24
		c-0.15-2.06-0.22-3.88-0.22-5.48c0-1.91,0.06-3.93,0.17-6.06c0.12-2.13,0.32-4.28,0.61-6.45c0.29-2.17,0.69-4.32,1.2-6.45
		c0.51-2.13,1.15-4.17,1.93-6.11c0.78-1.94,1.72-3.74,2.8-5.41c1.09-1.67,2.37-3.11,3.85-4.32c0.67-0.55,1.43-1.03,2.28-1.43
		c0.85-0.41,1.7-0.61,2.54-0.61c0.35,0,0.75,0.08,1.2,0.24c0.45,0.16,0.67,0.46,0.67,0.89c0,0.23-0.12,0.51-0.35,0.83
		c-4.14,5.71-7.14,11.77-9,18.19c-1.85,6.42-2.78,13.22-2.78,20.4c0,2.96,0.14,5.8,0.41,8.54c0.27,2.74,0.64,5.6,1.11,8.58
		c0.12-1.51,0.28-3.12,0.5-4.84c0.22-1.72,0.52-3.43,0.91-5.11c0.39-1.68,0.89-3.29,1.5-4.85c0.61-1.55,1.36-2.92,2.26-4.11
		c0.9-1.19,1.95-2.14,3.15-2.85c1.2-0.71,2.61-1.06,4.24-1.06c1.71,0,3.13,0.5,4.26,1.5c1.13,1,1.69,2.37,1.69,4.11
		c0,0.99-0.16,1.96-0.48,2.91c-0.32,0.96-0.75,1.86-1.28,2.72c-0.54,0.86-1.14,1.66-1.83,2.41c-0.68,0.75-1.38,1.41-2.11,1.96
		c-1.04,0.81-2.19,1.59-3.43,2.35c0.46,0.9,0.98,1.75,1.56,2.54c0.58,0.8,1.22,1.49,1.91,2.09s1.47,1.06,2.32,1.41
		s1.8,0.52,2.85,0.52c0.93,0,1.83-0.15,2.72-0.46c0.88-0.3,1.72-0.71,2.5-1.22s1.51-1.1,2.19-1.78c0.68-0.68,1.3-1.4,1.85-2.15
		L134.79,157.8z M117.63,144.19c-1.45,0-2.64,0.46-3.56,1.37c-0.93,0.91-1.69,2.06-2.28,3.43c-0.59,1.38-1.05,2.89-1.37,4.54
		c-0.32,1.65-0.58,3.22-0.78,4.69c1.39-0.55,2.72-1.22,3.98-2.02c1.26-0.8,2.35-1.67,3.28-2.63c0.93-0.96,1.67-1.98,2.22-3.06
		c0.55-1.09,0.83-2.22,0.83-3.41c0-0.75-0.2-1.43-0.59-2.02C118.95,144.49,118.38,144.19,117.63,144.19z"/>
	<path class="st0" d="M156.51,155.1c0,1.51-0.28,2.93-0.83,4.26c-0.55,1.33-1.32,2.49-2.3,3.48c-0.99,0.98-2.14,1.77-3.46,2.35
		c-1.32,0.58-2.75,0.87-4.28,0.87c-1.01,0-2.01-0.16-3-0.48c-0.99-0.32-1.89-0.78-2.72-1.37c-0.83-0.59-1.54-1.31-2.15-2.15
		c-0.61-0.84-1.04-1.77-1.3-2.78l1-0.26c0.75,0.93,1.63,1.69,2.63,2.3c1,0.61,2.14,0.91,3.41,0.91c1.07,0,2.06-0.23,2.98-0.7
		c0.91-0.46,1.69-1.07,2.35-1.82c0.65-0.75,1.16-1.63,1.52-2.63c0.36-1,0.54-2.02,0.54-3.06c0-1.25-0.17-2.28-0.52-3.11
		c-0.35-0.83-0.8-1.52-1.37-2.09c-0.57-0.56-1.2-1.06-1.89-1.48c-0.7-0.42-1.4-0.85-2.11-1.28c-0.71-0.43-1.39-0.93-2.04-1.48
		c-0.65-0.55-1.21-1.26-1.67-2.13c-0.03,1.71-0.32,3.51-0.87,5.39c-0.55,1.88-1.3,3.71-2.24,5.48c-0.94,1.77-2.02,3.42-3.24,4.95
		c-1.22,1.54-2.51,2.83-3.87,3.87l-0.35-0.61c0.93-0.98,1.74-2.22,2.43-3.69s1.27-3.03,1.72-4.67c0.45-1.64,0.78-3.28,1-4.93
		c0.22-1.65,0.33-3.16,0.33-4.52c0-0.72-0.07-1.43-0.22-2.13c-0.15-0.7-0.22-1.38-0.22-2.04c0-0.81,0.24-1.43,0.72-1.87
		c0.48-0.43,1.09-0.65,1.85-0.65c0.58,0,1.04,0.13,1.39,0.39s0.67,0.6,0.96,1.02c0.29,0.42,0.58,0.9,0.87,1.43
		c0.29,0.54,0.66,1.09,1.11,1.65c0.45,0.57,1.01,1.12,1.69,1.65c0.68,0.54,1.56,1.01,2.63,1.41c1.25,0.46,2.44,0.99,3.59,1.59
		c1.14,0.59,2.16,1.3,3.04,2.11c0.88,0.81,1.59,1.78,2.11,2.89C156.25,152.28,156.51,153.59,156.51,155.1z"/>
	<path class="st0" d="M184.75,155.1c0,1.51-0.28,2.93-0.83,4.26c-0.55,1.33-1.32,2.49-2.3,3.48c-0.99,0.98-2.14,1.77-3.46,2.35
		c-1.32,0.58-2.75,0.87-4.28,0.87c-1.01,0-2.01-0.16-3-0.48c-0.99-0.32-1.89-0.78-2.72-1.37c-0.83-0.59-1.54-1.31-2.15-2.15
		c-0.61-0.84-1.04-1.77-1.3-2.78l1-0.26c0.75,0.93,1.63,1.69,2.63,2.3c1,0.61,2.14,0.91,3.41,0.91c1.07,0,2.06-0.23,2.98-0.7
		c0.91-0.46,1.69-1.07,2.35-1.82c0.65-0.75,1.16-1.63,1.52-2.63c0.36-1,0.54-2.02,0.54-3.06c0-1.25-0.17-2.28-0.52-3.11
		c-0.35-0.83-0.8-1.52-1.37-2.09c-0.57-0.56-1.2-1.06-1.89-1.48c-0.7-0.42-1.4-0.85-2.11-1.28c-0.71-0.43-1.39-0.93-2.04-1.48
		c-0.65-0.55-1.21-1.26-1.67-2.13c-0.03,1.71-0.32,3.51-0.87,5.39c-0.55,1.88-1.3,3.71-2.24,5.48c-0.94,1.77-2.02,3.42-3.24,4.95
		c-1.22,1.54-2.51,2.83-3.87,3.87l-0.35-0.61c0.93-0.98,1.74-2.22,2.43-3.69s1.27-3.03,1.72-4.67c0.45-1.64,0.78-3.28,1-4.93
		c0.22-1.65,0.33-3.16,0.33-4.52c0-0.72-0.07-1.43-0.22-2.13c-0.15-0.7-0.22-1.38-0.22-2.04c0-0.81,0.24-1.43,0.72-1.87
		c0.48-0.43,1.09-0.65,1.85-0.65c0.58,0,1.04,0.13,1.39,0.39s0.67,0.6,0.96,1.02c0.29,0.42,0.58,0.9,0.87,1.43
		c0.29,0.54,0.66,1.09,1.11,1.65c0.45,0.57,1.01,1.12,1.69,1.65c0.68,0.54,1.56,1.01,2.63,1.41c1.25,0.46,2.44,0.99,3.59,1.59
		c1.14,0.59,2.16,1.3,3.04,2.11c0.88,0.81,1.59,1.78,2.11,2.89C184.49,152.28,184.75,153.59,184.75,155.1z"/>
	<path class="st0" d="M213.72,151.62c0,2.03-0.33,3.91-1,5.65s-1.61,3.24-2.82,4.52c-1.22,1.27-2.67,2.27-4.37,3
		c-1.69,0.72-3.57,1.09-5.63,1.09c-1.83,0-3.47-0.34-4.93-1.02c-1.46-0.68-2.72-1.6-3.76-2.76c-1.04-1.16-1.84-2.51-2.39-4.06
		c-0.55-1.55-0.83-3.21-0.83-4.98c0-1.48,0.21-2.88,0.63-4.22c0.42-1.33,1.01-2.57,1.76-3.71c0.75-1.14,1.65-2.2,2.69-3.17
		c1.04-0.97,2.17-1.85,3.39-2.63l0.52,0.39c-1.22,1.42-2.17,2.98-2.87,4.69c-0.7,1.71-1.04,3.52-1.04,5.43
		c0,1.39,0.21,2.8,0.63,4.24c0.42,1.43,1.04,2.75,1.85,3.93c0.81,1.19,1.83,2.16,3.04,2.91c1.22,0.75,2.61,1.13,4.17,1.13
		c0.98,0,1.91-0.2,2.78-0.61c0.87-0.41,1.63-0.96,2.28-1.65s1.17-1.48,1.56-2.37c0.39-0.88,0.59-1.8,0.59-2.76
		c0-0.93-0.14-1.83-0.41-2.72c-0.28-0.88-0.66-1.71-1.15-2.48s-1.09-1.46-1.78-2.09s-1.45-1.14-2.26-1.54
		c-0.46-0.23-0.91-0.41-1.33-0.52c-0.42-0.12-0.88-0.25-1.37-0.39c-0.2-0.03-0.42-0.08-0.65-0.15c-0.23-0.07-0.45-0.16-0.65-0.26
		c-0.2-0.1-0.38-0.24-0.52-0.41c-0.15-0.17-0.22-0.39-0.22-0.65c0-0.52,0.19-1,0.56-1.43c0.38-0.43,0.83-0.82,1.35-1.15
		s1.07-0.59,1.65-0.78c0.58-0.19,1.09-0.28,1.52-0.28c1.48,0,2.78,0.38,3.91,1.13c1.13,0.75,2.07,1.71,2.82,2.87
		c0.75,1.16,1.32,2.43,1.7,3.82C213.53,149.02,213.72,150.35,213.72,151.62z"/>
	<path class="st0" d="M254.56,158.23c-0.55,1.04-1.14,2.04-1.76,3s-1.33,1.8-2.11,2.52s-1.67,1.3-2.65,1.74
		c-0.98,0.43-2.11,0.65-3.39,0.65c-1.45,0-2.7-0.36-3.74-1.07c-1.04-0.71-1.93-1.65-2.67-2.82c-0.74-1.17-1.33-2.51-1.78-4.02
		c-0.45-1.51-0.82-3.04-1.11-4.61c-0.29-1.56-0.51-3.11-0.65-4.63c-0.15-1.52-0.28-2.89-0.39-4.11c-0.55,0.43-1.22,1.27-2,2.5
		c-0.78,1.23-1.58,2.67-2.39,4.32c-0.81,1.65-1.59,3.45-2.33,5.39c-0.74,1.94-1.34,3.85-1.8,5.74c-0.09,0.41-0.22,0.83-0.41,1.26
		c-0.19,0.43-0.42,0.83-0.7,1.2c-0.28,0.36-0.6,0.67-0.98,0.91c-0.38,0.25-0.8,0.37-1.26,0.37c-0.75,0-1.3-0.26-1.63-0.78
		s-0.57-1.12-0.72-1.78c-0.84-3.68-1.43-7.2-1.76-10.56c-0.33-3.36-0.5-6.72-0.5-10.08c0-0.81,0.14-1.51,0.41-2.11
		c0.27-0.59,0.64-1.09,1.11-1.48c0.46-0.39,1.01-0.68,1.65-0.87c0.64-0.19,1.3-0.28,2-0.28c0.09,0,0.22,0,0.41,0
		s0.37,0.02,0.54,0.07c0.17,0.04,0.32,0.11,0.43,0.2c0.12,0.09,0.16,0.2,0.13,0.35c-0.75,3.8-1.12,7.66-1.09,11.58
		c0.03,3.93,0.23,7.7,0.61,11.32c0.32-1.45,0.79-3.09,1.41-4.93c0.62-1.84,1.35-3.69,2.17-5.56c0.83-1.87,1.72-3.65,2.69-5.35
		c0.97-1.69,1.96-3.12,2.98-4.28c0.49-0.55,0.99-1.02,1.5-1.41c0.51-0.39,1.14-0.59,1.89-0.59c0.43,0,0.8,0.09,1.09,0.26
		c0.29,0.17,0.53,0.39,0.72,0.65c0.19,0.26,0.33,0.56,0.43,0.89c0.1,0.33,0.18,0.66,0.24,0.98c0.15,0.84,0.29,1.93,0.44,3.26
		c0.14,1.33,0.33,2.75,0.54,4.26c0.22,1.51,0.48,3.02,0.8,4.54c0.32,1.52,0.72,2.9,1.22,4.13c0.49,1.23,1.09,2.24,1.78,3.02
		s1.52,1.17,2.48,1.17c0.78,0,1.54-0.15,2.28-0.46c0.74-0.3,1.44-0.7,2.11-1.17c0.67-0.48,1.29-1.03,1.87-1.65
		c0.58-0.62,1.1-1.24,1.56-1.85L254.56,158.23z"/>
</g>
</svg>
